<?xml version="1.0" standalone="no"?>
<!DOCTYPE svg PUBLIC "-//W3C//DTD SVG 20010904//EN"
 "http://www.w3.org/TR/2001/REC-SVG-20010904/DTD/svg10.dtd">
<svg version="1.0" xmlns="http://www.w3.org/2000/svg"
 width="1280.000000pt" height="436.000000pt" viewBox="0 0 1280.000000 436.000000"
 preserveAspectRatio="xMidYMid meet">
<g transform="translate(0.000000,436.000000) scale(0.100000,-0.100000)"
fill="#e91e63" stroke="none">
<path d="M0 4228 c0 -72 3 -129 6 -125 4 3 56 -19 116 -49 62 -31 117 -53 127
-50 9 4 6 -2 -8 -14 -41 -35 -62 -34 -154 9 l-87 40 0 -178 0 -179 30 -12 c16
-7 30 -16 30 -20 0 -4 -13 -13 -30 -20 -29 -12 -30 -15 -30 -76 0 -53 3 -65
20 -74 18 -10 20 -21 20 -125 0 -63 2 -115 5 -115 3 0 56 25 117 56 l112 56
78 -38 c71 -34 78 -41 78 -67 0 -24 3 -28 18 -22 40 17 53 15 120 -19 40 -20
74 -36 77 -36 3 0 5 36 5 80 0 78 1 80 26 86 20 5 51 -5 125 -42 l99 -48 53
26 53 26 44 -24 c104 -54 98 -54 252 22 76 38 138 71 138 74 0 4 -17 14 -37
24 -36 17 -37 19 -18 32 23 17 46 18 68 2 13 -10 17 -33 19 -99 l3 -86 257
126 c141 69 257 129 257 132 1 3 -21 16 -49 29 -45 21 -50 27 -50 56 0 27 6
37 30 49 39 20 40 20 40 -20 0 -19 2 -35 5 -35 3 0 27 11 54 24 l48 25 12
-222 c7 -122 14 -223 16 -225 1 -1 30 13 65 33 35 20 102 56 150 81 l87 44
104 -46 c57 -25 128 -57 157 -70 l52 -24 0 115 0 115 38 -16 c20 -9 66 -29
102 -44 l65 -27 3 39 c3 33 6 37 18 27 11 -9 14 -38 14 -120 0 -60 2 -109 4
-109 1 0 81 43 177 96 96 53 179 97 184 97 6 0 96 -39 201 -86 105 -48 194
-87 199 -87 4 0 5 43 3 95 -1 52 -2 95 0 95 1 0 83 -40 182 -90 99 -49 184
-90 190 -90 6 0 10 40 10 101 0 96 1 100 20 94 18 -6 20 -2 20 54 0 34 2 61 5
61 3 0 23 -9 45 -20 62 -31 64 -30 56 55 -7 74 -6 75 13 63 18 -11 18 -13 3
-24 -21 -15 -21 -15 62 -52 l68 -30 -98 -55 c-55 -30 -111 -61 -126 -68 -35
-15 -35 -27 -3 -35 14 -3 22 -10 19 -15 -3 -5 1 -6 9 -4 7 3 113 -39 235 -94
l221 -100 218 120 218 120 175 -86 c96 -47 178 -85 183 -85 4 0 7 61 7 135 l0
135 46 -23 47 -22 -7 -148 -6 -147 90 45 91 46 86 -46 c47 -25 87 -45 89 -45
2 0 4 27 4 60 l0 60 51 -26 c28 -14 53 -24 55 -22 2 2 4 50 5 106 1 56 6 102
11 102 4 0 8 -51 8 -114 l0 -115 194 95 c130 63 200 92 211 87 12 -4 16 -3 11
5 -6 9 21 32 38 32 3 0 6 -34 6 -75 0 -58 -4 -76 -16 -83 -15 -8 -15 -10 0
-15 11 -4 16 -19 16 -48 0 -35 2 -40 18 -34 72 30 70 30 127 2 31 -15 56 -27
58 -27 1 0 1 24 -1 53 -4 62 13 86 47 68 28 -15 31 -14 31 12 0 18 13 29 65
55 l65 32 68 -31 68 -30 128 71 c71 39 130 69 133 66 2 -2 -2 -67 -9 -145 -8
-78 -13 -141 -11 -141 1 0 70 27 153 59 l150 59 79 -48 c83 -50 91 -50 91 4 0
17 21 32 116 79 64 32 119 56 122 53 4 -5 190 89 266 135 l28 17 -43 19 -44
20 30 15 c27 14 34 14 58 2 26 -14 27 -17 27 -100 0 -47 3 -84 8 -82 4 2 40
20 80 41 l72 37 0 -125 0 -125 193 94 c105 52 223 108 261 126 l70 32 58 -28
c32 -15 58 -31 58 -34 0 -4 -12 -12 -27 -19 -27 -13 -25 -15 117 -86 l145 -73
3 29 c2 16 5 29 7 29 3 0 60 -29 127 -65 l123 -64 82 44 c46 25 85 45 88 45 3
0 5 -16 5 -35 l0 -35 170 85 170 85 0 -59 0 -59 91 41 91 42 89 -48 89 -48 0
61 c0 33 2 60 5 60 3 0 28 -11 55 -25 40 -20 50 -22 50 -10 0 13 197 122 205
113 2 -2 7 -55 11 -118 3 -63 10 -121 13 -127 5 -9 60 19 184 92 l176 105 116
-57 115 -58 155 78 c85 42 163 77 173 77 9 -1 72 -29 138 -63 l121 -62 7 74
c3 41 6 91 6 113 0 21 5 38 10 38 6 0 10 -47 10 -120 0 -66 2 -120 5 -120 6 0
99 42 233 106 62 30 119 54 128 54 8 0 29 7 45 16 36 18 33 20 227 -70 l143
-65 -1 534 -1 535 -315 0 c-263 0 -320 -3 -344 -15 -17 -9 -30 -18 -30 -20 0
-3 30 -20 67 -39 58 -29 64 -34 45 -40 -12 -4 -22 -11 -22 -15 0 -6 93 -52
298 -147 82 -38 82 -38 82 -76 0 -21 -2 -38 -5 -38 -3 0 -29 12 -58 26 -53 27
-91 33 -138 20 -35 -10 -120 30 -98 46 11 8 10 9 -4 4 -24 -8 -240 101 -231
116 4 7 2 8 -4 4 -6 -4 -39 7 -72 24 l-61 31 118 59 118 59 -6072 0 -6073 1 0
-132z m5440 107 c0 -3 -29 -19 -65 -35 -36 -16 -65 -33 -65 -37 0 -4 23 -18
51 -30 l50 -22 -2 -86 c-1 -74 -4 -85 -18 -80 -44 16 -271 121 -271 125 0 11
122 70 133 64 7 -4 9 -3 5 1 -5 5 16 22 45 38 28 16 54 33 57 37 15 20 80 40
80 25z m910 -82 c-1 -5 -36 -25 -78 -46 -82 -40 -80 -37 8 17 58 36 70 41 70
29z m-17 -104 c-4 -4 -6 13 -3 39 l5 47 3 -39 c2 -21 0 -42 -5 -47z m5557 -40
l0 -120 -60 33 c-50 27 -60 37 -56 53 3 11 6 39 6 63 0 42 1 43 53 67 28 14
53 25 55 25 1 0 2 -54 2 -121z m-5714 48 c-11 -7 -28 -20 -38 -29 -13 -13 -18
-14 -18 -5 0 7 15 21 33 30 38 19 50 21 23 4z m-1077 -94 c1 -54 5 -108 8
-121 5 -23 5 -23 -28 -9 -96 41 -90 34 -87 106 l3 66 50 27 c28 15 51 28 51
28 1 0 2 -44 3 -97z m1211 73 c0 -7 -130 -76 -143 -76 -7 0 -22 7 -33 15 -17
13 -16 13 11 3 27 -9 37 -6 95 26 68 38 70 38 70 32z m257 -123 c0 -49 3 -107
7 -130 7 -36 5 -43 -14 -53 -12 -6 -24 -9 -27 -6 -3 3 -5 46 -4 95 0 87 -4
101 -24 83 -6 -5 -31 -21 -57 -36 l-48 -27 0 40 c0 38 2 40 73 80 39 22 77 40
83 41 8 0 11 -29 11 -87z m-777 -53 c0 -22 -3 -40 -7 -40 -4 0 -27 8 -51 17
l-44 17 43 22 c24 13 47 23 52 24 4 0 7 -18 7 -40z m4017 -31 c-22 -11 -41
-18 -44 -16 -6 7 48 36 67 36 8 0 -2 -9 -23 -20z m-7035 -61 c-6 -6 -7 0 -4
19 5 21 7 23 10 9 2 -10 0 -22 -6 -28z m2318 7 c0 -2 -10 -9 -22 -15 -22 -11
-22 -10 -4 4 21 17 26 19 26 11z m6642 -4 c2 -5 31 -23 66 -40 61 -31 73 -51
30 -51 -12 0 -50 16 -86 36 -60 34 -64 38 -47 50 22 16 32 18 37 5z m-688 -10
c3 -5 -1 -11 -9 -15 -15 -6 -29 7 -18 18 9 9 21 8 27 -3z m-7306 -48 c16 -7
-14 -30 -38 -30 -8 0 -48 -19 -88 -42 l-72 -41 -42 21 -41 21 98 53 c98 53 99
54 134 38 20 -8 42 -17 49 -20z m2281 -25 c-1 -35 -4 -53 -6 -40 -5 26 -19 24
-85 -9 -37 -19 -38 -19 -38 0 0 12 15 28 38 42 20 13 47 33 59 46 12 13 25 23
28 23 3 0 4 -28 4 -62z m4500 48 c23 -13 23 -14 5 -23 -25 -14 -44 -6 -44 18
0 22 6 23 39 5z m-10172 -8 c18 -7 33 -15 33 -18 0 -5 -125 -70 -135 -70 -3 0
-5 14 -5 30 0 23 7 35 33 50 38 24 32 23 74 8z m4743 -109 c0 -4 -8 -10 -17
-13 -16 -6 -173 53 -173 65 0 3 9 10 21 15 15 7 38 1 94 -26 41 -19 75 -38 75
-41z m-2030 66 c0 -2 -22 -16 -50 -30 -61 -31 -66 -25 -7 9 41 25 57 31 57 21z
m5720 -25 l0 -31 -32 17 -32 16 25 14 c35 19 39 17 39 -16z m-4510 -10 c0 -12
-28 -25 -36 -17 -9 9 6 27 22 27 8 0 14 -5 14 -10z m1167 -40 l24 -19 -23 -14
c-13 -8 -61 -35 -108 -60 -79 -43 -83 -47 -60 -55 24 -9 24 -10 -17 -31 -23
-11 -45 -21 -48 -21 -11 0 -5 99 8 104 10 5 10 7 0 12 -25 11 -12 23 70 68 88
49 109 51 154 16z m3403 10 c0 -18 -3 -19 -21 -9 -17 9 -19 13 -8 20 22 14 29
11 29 -11z m-8160 -60 c0 -10 -31 -22 -38 -16 -2 3 -2 12 1 20 6 15 37 12 37
-4z m5337 -12 c-3 -7 -5 -2 -5 12 0 14 2 19 5 13 2 -7 2 -19 0 -25z m-3087
-13 c0 -8 -4 -15 -10 -15 -5 0 -10 7 -10 15 0 8 5 15 10 15 6 0 10 -7 10 -15z
m9385 -15 c-10 -11 -20 -18 -22 -16 -2 2 -18 -10 -35 -27 -28 -29 -29 -31 -12
-44 10 -7 13 -13 7 -13 -6 0 -17 7 -24 16 -11 14 -9 19 11 35 35 26 18 24 -41
-7 -28 -14 -56 -23 -62 -21 -7 3 -3 8 8 11 11 4 56 25 100 46 95 46 93 45 70
20z m-522 -62 c29 -14 36 -28 12 -28 -23 0 -65 22 -59 31 7 12 15 11 47 -3z
m487 -68 c55 -28 100 -52 100 -55 0 -5 -199 92 -209 101 -14 13 21 -2 109 -46z
m50 5 c25 -13 41 -24 35 -24 -5 0 -30 11 -55 24 -25 13 -40 24 -35 24 6 0 30
-11 55 -24z m-7280 -24 c56 -25 33 -38 -25 -14 -44 18 -58 33 -31 33 8 0 33
-8 56 -19z"/>
<path d="M11791 4076 c10 -9 89 -46 89 -41 0 5 -75 45 -86 45 -4 0 -5 -2 -3
-4z"/>
<path d="M5007 3999 c7 -7 15 -10 18 -7 3 3 -2 9 -12 12 -14 6 -15 5 -6 -5z"/>
<path d="M5060 3976 c0 -2 7 -7 16 -10 8 -3 12 -2 9 4 -6 10 -25 14 -25 6z"/>
<path d="M5742 3971 l-32 -17 32 -12 c37 -14 41 -12 36 21 -3 25 -3 25 -36 8z"/>
<path d="M4111 3327 l-1 -38 30 16 c17 9 30 18 30 21 0 2 -9 0 -19 -6 -28 -14
-29 -13 -34 18 -3 21 -4 19 -6 -11z"/>
<path d="M9735 1184 c-93 -51 -176 -93 -183 -93 -7 -1 -99 39 -205 89 l-192
89 -3 -137 -3 -138 -124 -62 c-69 -34 -132 -62 -140 -62 -33 0 -21 20 30 46
30 16 55 31 55 34 0 3 -46 25 -101 50 -56 25 -103 49 -107 54 -3 5 -5 35 -5
65 l0 56 -4 -52 c-3 -36 -8 -53 -18 -53 -10 0 -12 -14 -8 -60 4 -43 2 -60 -6
-60 -7 0 -9 5 -5 12 4 6 3 8 -4 5 -15 -10 -43 3 -35 17 3 6 3 8 -2 4 -6 -6
-117 43 -134 58 -3 2 4 11 15 20 16 13 14 13 -11 -1 -30 -16 -31 -16 -203 64
-95 45 -175 81 -178 81 -2 0 -4 -25 -4 -55 0 -53 -1 -54 -23 -46 -19 8 -39 1
-96 -30 -40 -21 -76 -39 -82 -39 -5 0 -9 38 -9 85 0 47 -3 85 -7 85 -3 0 -62
-29 -129 -65 -68 -36 -130 -65 -138 -65 -8 0 -16 -4 -18 -10 -1 -5 -41 -30
-87 -54 l-83 -45 -119 54 -118 55 -88 -46 -88 -47 -98 46 -99 46 -39 -19 c-21
-11 -41 -20 -44 -20 -3 0 -5 21 -5 46 0 25 -3 44 -7 42 -5 -2 -45 -22 -89 -45
l-82 -42 -82 39 c-45 22 -86 40 -91 40 -5 0 -9 -25 -9 -55 0 -30 -2 -55 -5
-55 -4 0 -18 6 -33 14 -59 30 -70 29 -74 -3 l-3 -30 -237 111 -236 110 -207
-111 c-114 -61 -211 -111 -216 -111 -4 0 -74 30 -154 67 l-146 66 -57 -27 -57
-27 -68 30 c-38 17 -74 31 -79 31 -15 0 -278 -144 -278 -152 0 -3 16 -12 35
-18 41 -13 44 -26 12 -41 -15 -7 -31 -7 -50 0 -26 10 -27 12 -27 96 0 55 -4
85 -11 85 -9 0 -345 -177 -399 -211 -8 -5 -34 -19 -58 -31 -23 -12 -42 -25
-42 -29 0 -4 20 -15 45 -26 25 -10 45 -25 45 -33 0 -8 3 -24 6 -35 4 -16 -3
-24 -30 -38 l-36 -17 0 36 c0 25 -4 35 -12 31 -47 -19 -45 -24 -51 89 -4 59
-7 138 -7 176 0 37 -2 68 -3 68 -2 0 -70 -31 -150 -70 -80 -38 -151 -70 -157
-70 -6 0 -43 16 -83 36 -39 20 -107 52 -149 70 l-78 33 0 -114 0 -114 -102 49
-103 48 -3 -34 c-2 -21 -8 -34 -18 -34 -11 0 -14 22 -14 115 0 63 -2 115 -5
115 -3 0 -87 -41 -187 -91 l-181 -91 -194 96 c-107 53 -197 96 -199 96 -2 0
-4 -61 -4 -135 l0 -136 -132 -64 c-109 -52 -136 -61 -152 -53 -18 10 -14 14
42 42 l62 30 -107 56 -107 55 0 60 c1 59 1 59 -3 8 -3 -39 -8 -53 -19 -53 -13
0 -15 -11 -12 -60 1 -33 2 -60 0 -60 -1 0 -25 11 -52 25 -27 14 -52 25 -55 25
-3 0 -5 -22 -5 -50 l0 -50 -65 32 c-36 18 -65 35 -65 38 0 3 54 32 120 65 66
33 119 63 117 68 -3 10 4 6 -270 140 l-217 107 -210 -105 c-202 -101 -238
-116 -225 -95 9 15 -1 12 -55 -15 -27 -14 -52 -25 -55 -25 -3 0 -5 50 -5 110
0 62 -4 110 -9 110 -6 0 -92 -40 -193 -90 -101 -49 -184 -90 -185 -90 -2 0 -3
27 -3 60 l0 60 -140 -70 c-77 -38 -147 -70 -155 -70 -9 0 -47 16 -85 35 -38
19 -72 35 -75 35 -3 0 -5 -23 -5 -50 0 -44 -3 -52 -25 -62 l-25 -11 0 -189 c0
-183 1 -188 19 -178 27 14 31 13 31 -9 0 -20 -25 -35 -41 -25 -5 3 -9 -105 -9
-265 l0 -271 6382 0 c5917 0 6383 1 6400 17 16 14 18 34 18 169 0 144 -1 154
-20 164 -11 6 -25 8 -30 5 -6 -4 -10 -3 -9 2 1 4 1 81 0 171 l-1 162 -101 -51
c-68 -34 -105 -47 -112 -40 -6 6 37 33 132 80 140 71 141 71 141 105 0 19 -4
38 -10 41 -13 8 -13 262 0 270 7 4 6 13 -1 27 -6 11 -9 34 -7 50 5 32 4 32
-57 8 -27 -11 -37 -9 -90 18 l-60 30 -120 -60 -119 -60 34 -18 34 -18 -44 -22
-44 -22 -115 55 c-64 30 -143 67 -177 82 l-61 27 -51 -26 -52 -26 -70 35 c-38
19 -75 35 -82 35 -7 0 -76 -31 -153 -69 l-140 -68 44 -23 45 -22 -28 -15 c-24
-12 -33 -13 -52 -2 -22 12 -24 18 -24 101 0 48 -2 88 -5 88 -2 0 -80 -37 -172
-83 -92 -45 -207 -100 -255 -122 -49 -21 -88 -43 -88 -47 0 -5 20 -18 45 -30
41 -20 45 -25 45 -58 0 -30 -5 -39 -25 -48 -39 -18 -45 -15 -45 23 l0 35 -50
-25 c-27 -14 -51 -25 -53 -25 -2 0 -8 100 -12 223 -4 122 -8 223 -10 225 -2 2
-27 -10 -56 -26 -30 -17 -99 -53 -153 -80 l-99 -51 -51 26 c-75 39 -249 113
-253 109 -2 -2 -4 -51 -4 -110 0 -58 -3 -106 -8 -106 -5 0 -52 20 -105 45
l-96 44 0 -40 c0 -28 -4 -39 -12 -37 -9 3 -15 40 -18 116 -3 61 -8 113 -10
115 -3 2 -81 -38 -175 -89z m-1115 -284 c0 -51 -4 -57 -28 -41 -11 7 -11 9 2
14 8 3 14 15 13 26 0 11 -4 18 -8 15 -4 -2 -15 -1 -24 2 -15 6 -14 9 6 20 36
20 39 18 39 -36z m-7555 3 c35 -17 46 -33 23 -33 -14 0 -78 37 -78 45 0 9 19
5 55 -12z m6573 -37 c38 -27 39 -25 -70 -84 l-77 -42 -53 23 -52 23 94 52 c52
28 102 52 111 52 8 0 30 -11 47 -24z m-796 -12 c26 -13 37 -14 67 -4 33 10 43
8 110 -23 l75 -33 -108 -58 c-59 -32 -105 -60 -102 -64 3 -3 -11 -16 -33 -29
l-39 -23 -63 30 c-35 16 -56 29 -46 30 10 0 35 -9 57 -20 22 -11 42 -20 45
-20 3 0 5 22 5 50 0 48 1 50 40 70 22 11 40 24 40 28 0 5 -20 18 -45 30 -25
12 -45 29 -45 37 0 19 4 19 42 -1z m5668 9 c-1 -5 -48 -30 -105 -57 -58 -27
-105 -54 -105 -58 0 -5 -4 -6 -10 -3 -5 3 -10 1 -10 -4 0 -6 -7 -11 -16 -11
-26 0 -10 23 22 32 16 5 70 30 119 57 95 51 105 55 105 44z m-3397 -59 c26
-14 47 -31 47 -39 0 -20 1 -20 -90 21 -57 26 -80 42 -80 55 0 17 2 17 38 2 20
-8 58 -26 85 -39z m833 9 c-10 -10 -19 5 -10 18 6 11 8 11 12 0 2 -7 1 -15 -2
-18z m2551 -125 c-2 -29 -3 -6 -3 52 0 58 1 81 3 53 2 -29 2 -77 0 -105z
m-4610 60 c40 -18 72 -36 73 -40 0 -12 -42 -31 -49 -22 -3 5 -37 24 -75 42
-52 25 -66 36 -55 43 21 13 28 12 106 -23z m1482 -7 l34 -18 -64 -36 c-129
-71 -127 -71 -183 -46 -49 21 -49 22 -25 34 13 7 26 12 30 10 3 -3 39 14 80
35 41 22 79 39 84 39 6 0 25 -8 44 -18z m-7532 -10 c-1 -16 -4 -18 -21 -9 -22
12 -23 11 21 27 1 1 1 -8 0 -18z m6785 -13 c-6 -6 -16 -7 -23 -3 -9 6 -7 12 7
22 21 15 34 -1 16 -19z m3718 -8 c22 -11 40 -23 40 -25 0 -5 -79 32 -89 41
-11 10 14 2 49 -16z m-9970 -92 c0 -10 -2 -18 -5 -18 -3 0 -41 18 -85 40 -60
30 -80 45 -80 60 0 18 8 16 85 -22 59 -30 85 -48 85 -60z m7520 97 c0 -8 -82
-47 -87 -41 -3 2 12 14 34 25 39 20 53 25 53 16z m-3551 -158 l1 -67 53 30
c30 16 57 30 61 30 4 0 6 -17 4 -37 -3 -35 -7 -40 -82 -81 -43 -24 -80 -42
-82 -40 -1 2 -4 62 -5 133 -1 115 1 130 17 142 17 13 20 11 25 -14 4 -15 7
-58 8 -96z m-3179 97 c0 -8 -5 -12 -10 -9 -6 4 -8 11 -5 16 9 14 15 11 15 -7z
m9336 -32 c-5 -4 -86 36 -86 43 0 3 20 -5 45 -17 24 -12 43 -23 41 -26z
m-11399 6 c40 -18 72 -35 73 -38 0 -3 -9 -11 -20 -18 -17 -10 -23 -10 -34 0
-7 8 -31 22 -54 32 -22 10 -42 27 -45 37 -7 25 -4 25 80 -13z m6713 -3 c0 -2
-10 -9 -22 -15 -22 -11 -22 -10 -4 4 21 17 26 19 26 11z m-5970 -30 c0 -8 -9
-15 -20 -15 -22 0 -27 15 -7 23 21 9 27 7 27 -8z m735 -2 c19 -9 35 -19 35
-23 0 -3 -44 -28 -98 -54 l-98 -48 -49 25 c-47 23 -48 25 -24 33 13 4 29 9 34
10 6 1 42 18 80 37 39 20 73 36 77 37 4 0 23 -8 43 -17z m7512 -35 c-3 -7 -5
-2 -5 12 0 14 2 19 5 13 2 -7 2 -19 0 -25z m-2926 -14 c62 -31 75 -34 99 -24
22 9 34 8 66 -7 21 -9 41 -19 43 -20 3 -2 -4 -10 -15 -19 -18 -14 -18 -15 4
-4 21 10 39 5 137 -41 63 -29 111 -57 108 -62 -3 -6 -1 -7 4 -4 14 9 136 -44
126 -54 -5 -4 -53 -32 -108 -62 -55 -30 -118 -66 -139 -81 -39 -26 -66 -33
-66 -17 0 5 29 21 65 36 36 16 65 31 65 35 0 4 -30 20 -66 35 -57 24 -64 30
-50 40 9 7 16 15 16 17 0 3 -43 25 -95 49 -83 37 -115 59 -87 59 5 0 17 7 28
16 10 9 1 6 -20 -6 l-40 -22 -83 37 c-76 34 -83 40 -89 71 -7 37 0 64 16 64 6
0 42 -16 81 -36z m2979 32 c0 -2 -7 -7 -16 -10 -8 -3 -12 -2 -9 4 6 10 25 14
25 6z m-2325 -43 l56 -28 -3 -64 -3 -64 -52 -29 -53 -30 0 99 c0 54 -3 108 -6
121 -8 28 -6 28 61 -5z m-4725 12 c0 -7 -58 -35 -72 -35 -7 1 3 9 22 20 35 19
50 24 50 15z m-2034 -20 c-11 -8 -25 -15 -30 -15 -6 1 0 7 14 15 32 19 40 18
16 0z m-683 -81 c59 -30 76 -35 97 -27 22 8 47 -2 183 -72 86 -45 154 -85 150
-90 -5 -4 -3 -5 4 -1 6 3 41 -8 76 -25 l64 -32 -96 -47 c-53 -26 -98 -44 -101
-40 -3 4 -34 22 -69 39 -57 29 -61 34 -45 46 16 11 8 18 -81 63 l-99 49 59 31
c78 41 64 41 -18 1 l-63 -31 -82 41 c-81 41 -82 42 -82 79 0 64 6 65 103 16z
m653 -29 c49 -22 56 -28 50 -47 -3 -13 -6 -42 -6 -65 0 -41 -2 -44 -49 -68
l-50 -25 -3 95 c-2 52 -2 95 0 95 1 0 21 -9 43 -21 23 -11 43 -19 45 -16 2 2
-19 14 -46 27 -28 13 -50 29 -50 37 0 17 0 17 66 -12z m5748 -12 c22 -12 26
-17 15 -24 -9 -5 -21 -3 -34 7 -56 41 -63 41 -144 -2 -75 -39 -76 -40 -79 -83
-3 -38 -1 -43 15 -37 12 4 9 -1 -7 -13 -14 -11 -25 -19 -26 -18 -1 1 1 27 3
58 l5 56 77 42 c82 44 111 47 175 14z m5896 -3 c33 -17 60 -33 60 -35 0 -5
-119 52 -129 61 -13 12 16 1 69 -26z m-5945 -46 c-25 -20 -155 -86 -155 -80 0
3 36 24 81 47 61 32 79 46 74 58 -5 13 -4 14 7 3 11 -11 9 -16 -7 -28z m-6025
-281 c0 -15 -63 -44 -73 -34 -6 6 1 15 19 25 32 17 54 20 54 9z m11486 -45
c-49 -25 -71 -17 -27 10 18 11 40 18 49 15 10 -5 4 -12 -22 -25z"/>
<path d="M7830 486 c0 -2 7 -7 16 -10 8 -3 12 -2 9 4 -6 10 -25 14 -25 6z"/>
<path d="M8658 1129 c-21 -11 -38 -22 -38 -24 0 -3 18 4 40 15 22 11 40 23 40
25 0 7 0 7 -42 -16z"/>
</g>
</svg>
