<?xml version="1.0"?>
<svg width="1280" height="436" xmlns="http://www.w3.org/2000/svg" xmlns:svg="http://www.w3.org/2000/svg" preserveAspectRatio="xMidYMid meet">
 <g class="layer">
  <title>Layer 1</title>
  <g fill="#e91e63" id="svg_1" transform="translate(0.000000,436.000000) scale(0.100000,-0.100000)">
   <path d="m0,4228c0,-72 3,-129 6,-125c4,3 56,-19 116,-49c62,-31 117,-53 127,-50c9,4 6,-2 -8,-14c-41,-35 -62,-34 -154,9l-87,40l0,-178l0,-179l30,-12c16,-7 30,-16 30,-20c0,-4 -13,-13 -30,-20c-29,-12 -30,-15 -30,-76c0,-53 3,-65 20,-74c18,-10 20,-21 20,-125c0,-63 2,-115 5,-115c3,0 56,25 117,56l112,56l78,-38c71,-34 78,-41 78,-67c0,-24 3,-28 18,-22c40,17 53,15 120,-19c40,-20 74,-36 77,-36c3,0 5,36 5,80c0,78 1,80 26,86c20,5 51,-5 125,-42l99,-48l53,26l53,26l44,-24c104,-54 98,-54 252,22c76,38 138,71 138,74c0,4 -17,14 -37,24c-36,17 -37,19 -18,32c23,17 46,18 68,2c13,-10 17,-33 19,-99l3,-86l257,126c141,69 257,129 257,132c1,3 -21,16 -49,29c-45,21 -50,27 -50,56c0,27 6,37 30,49c39,20 40,20 40,-20c0,-19 2,-35 5,-35c3,0 27,11 54,24l48,25l12,-222c7,-122 14,-223 16,-225c1,-1 30,13 65,33c35,20 102,56 150,81l87,44l104,-46c57,-25 128,-57 157,-70l52,-24l0,115l0,115l38,-16c20,-9 66,-29 102,-44l65,-27l3,39c3,33 6,37 18,27c11,-9 14,-38 14,-120c0,-60 2,-109 4,-109c1,0 81,43 177,96c96,53 179,97 184,97c6,0 96,-39 201,-86c105,-48 194,-87 199,-87c4,0 5,43 3,95c-1,52 -2,95 0,95c1,0 83,-40 182,-90c99,-49 184,-90 190,-90c6,0 10,40 10,101c0,96 1,100 20,94c18,-6 20,-2 20,54c0,34 2,61 5,61c3,0 23,-9 45,-20c62,-31 64,-30 56,55c-7,74 -6,75 13,63c18,-11 18,-13 3,-24c-21,-15 -21,-15 62,-52l68,-30l-98,-55c-55,-30 -111,-61 -126,-68c-35,-15 -35,-27 -3,-35c14,-3 22,-10 19,-15c-3,-5 1,-6 9,-4c7,3 113,-39 235,-94l221,-100l218,120l218,120l175,-86c96,-47 178,-85 183,-85c4,0 7,61 7,135l0,135l46,-23l47,-22l-7,-148l-6,-147l90,45l91,46l86,-46c47,-25 87,-45 89,-45c2,0 4,27 4,60l0,60l51,-26c28,-14 53,-24 55,-22c2,2 4,50 5,106c1,56 6,102 11,102c4,0 8,-51 8,-114l0,-115l194,95c130,63 200,92 211,87c12,-4 16,-3 11,5c-6,9 21,32 38,32c3,0 6,-34 6,-75c0,-58 -4,-76 -16,-83c-15,-8 -15,-10 0,-15c11,-4 16,-19 16,-48c0,-35 2,-40 18,-34c72,30 70,30 127,2c31,-15 56,-27 58,-27c1,0 1,24 -1,53c-4,62 13,86 47,68c28,-15 31,-14 31,12c0,18 13,29 65,55l65,32l68,-31l68,-30l128,71c71,39 130,69 133,66c2,-2 -2,-67 -9,-145c-8,-78 -13,-141 -11,-141c1,0 70,27 153,59l150,59l79,-48c83,-50 91,-50 91,4c0,17 21,32 116,79c64,32 119,56 122,53c4,-5 190,89 266,135l28,17l-43,19l-44,20l30,15c27,14 34,14 58,2c26,-14 27,-17 27,-100c0,-47 3,-84 8,-82c4,2 40,20 80,41l72,37l0,-125l0,-125l193,94c105,52 223,108 261,126l70,32l58,-28c32,-15 58,-31 58,-34c0,-4 -12,-12 -27,-19c-27,-13 -25,-15 117,-86l145,-73l3,29c2,16 5,29 7,29c3,0 60,-29 127,-65l123,-64l82,44c46,25 85,45 88,45c3,0 5,-16 5,-35l0,-35l170,85l170,85l0,-59l0,-59l91,41l91,42l89,-48l89,-48l0,61c0,33 2,60 5,60c3,0 28,-11 55,-25c40,-20 50,-22 50,-10c0,13 197,122 205,113c2,-2 7,-55 11,-118c3,-63 10,-121 13,-127c5,-9 60,19 184,92l176,105l116,-57l115,-58l155,78c85,42 163,77 173,77c9,-1 72,-29 138,-63l121,-62l7,74c3,41 6,91 6,113c0,21 5,38 10,38c6,0 10,-47 10,-120c0,-66 2,-120 5,-120c6,0 99,42 233,106c62,30 119,54 128,54c8,0 29,7 45,16c36,18 33,20 227,-70l143,-65l-1,534l-1,535l-315,0c-263,0 -320,-3 -344,-15c-17,-9 -30,-18 -30,-20c0,-3 30,-20 67,-39c58,-29 64,-34 45,-40c-12,-4 -22,-11 -22,-15c0,-6 93,-52 298,-147c82,-38 82,-38 82,-76c0,-21 -2,-38 -5,-38c-3,0 -29,12 -58,26c-53,27 -91,33 -138,20c-35,-10 -120,30 -98,46c11,8 10,9 -4,4c-24,-8 -240,101 -231,116c4,7 2,8 -4,4c-6,-4 -39,7 -72,24l-61,31l118,59l118,59l-6072,0l-6073,1l0,-132zm5440,107c0,-3 -29,-19 -65,-35c-36,-16 -65,-33 -65,-37c0,-4 23,-18 51,-30l50,-22l-2,-86c-1,-74 -4,-85 -18,-80c-44,16 -271,121 -271,125c0,11 122,70 133,64c7,-4 9,-3 5,1c-5,5 16,22 45,38c28,16 54,33 57,37c15,20 80,40 80,25zm910,-82c-1,-5 -36,-25 -78,-46c-82,-40 -80,-37 8,17c58,36 70,41 70,29zm-17,-104c-4,-4 -6,13 -3,39l5,47l3,-39c2,-21 0,-42 -5,-47zm5557,-40l0,-120l-60,33c-50,27 -60,37 -56,53c3,11 6,39 6,63c0,42 1,43 53,67c28,14 53,25 55,25c1,0 2,-54 2,-121zm-5714,48c-11,-7 -28,-20 -38,-29c-13,-13 -18,-14 -18,-5c0,7 15,21 33,30c38,19 50,21 23,4zm-1077,-94c1,-54 5,-108 8,-121c5,-23 5,-23 -28,-9c-96,41 -90,34 -87,106l3,66l50,27c28,15 51,28 51,28c1,0 2,-44 3,-97zm1211,73c0,-7 -130,-76 -143,-76c-7,0 -22,7 -33,15c-17,13 -16,13 11,3c27,-9 37,-6 95,26c68,38 70,38 70,32zm257,-123c0,-49 3,-107 7,-130c7,-36 5,-43 -14,-53c-12,-6 -24,-9 -27,-6c-3,3 -5,46 -4,95c0,87 -4,101 -24,83c-6,-5 -31,-21 -57,-36l-48,-27l0,40c0,38 2,40 73,80c39,22 77,40 83,41c8,0 11,-29 11,-87zm-777,-53c0,-22 -3,-40 -7,-40c-4,0 -27,8 -51,17l-44,17l43,22c24,13 47,23 52,24c4,0 7,-18 7,-40zm4017,-31c-22,-11 -41,-18 -44,-16c-6,7 48,36 67,36c8,0 -2,-9 -23,-20zm-7035,-61c-6,-6 -7,0 -4,19c5,21 7,23 10,9c2,-10 0,-22 -6,-28zm2318,7c0,-2 -10,-9 -22,-15c-22,-11 -22,-10 -4,4c21,17 26,19 26,11zm6642,-4c2,-5 31,-23 66,-40c61,-31 73,-51 30,-51c-12,0 -50,16 -86,36c-60,34 -64,38 -47,50c22,16 32,18 37,5zm-688,-10c3,-5 -1,-11 -9,-15c-15,-6 -29,7 -18,18c9,9 21,8 27,-3zm-7306,-48c16,-7 -14,-30 -38,-30c-8,0 -48,-19 -88,-42l-72,-41l-42,21l-41,21l98,53c98,53 99,54 134,38c20,-8 42,-17 49,-20zm2281,-25c-1,-35 -4,-53 -6,-40c-5,26 -19,24 -85,-9c-37,-19 -38,-19 -38,0c0,12 15,28 38,42c20,13 47,33 59,46c12,13 25,23 28,23c3,0 4,-28 4,-62zm4500,48c23,-13 23,-14 5,-23c-25,-14 -44,-6 -44,18c0,22 6,23 39,5zm-10172,-8c18,-7 33,-15 33,-18c0,-5 -125,-70 -135,-70c-3,0 -5,14 -5,30c0,23 7,35 33,50c38,24 32,23 74,8zm4743,-109c0,-4 -8,-10 -17,-13c-16,-6 -173,53 -173,65c0,3 9,10 21,15c15,7 38,1 94,-26c41,-19 75,-38 75,-41zm-2030,66c0,-2 -22,-16 -50,-30c-61,-31 -66,-25 -7,9c41,25 57,31 57,21zm5720,-25l0,-31l-32,17l-32,16l25,14c35,19 39,17 39,-16zm-4510,-10c0,-12 -28,-25 -36,-17c-9,9 6,27 22,27c8,0 14,-5 14,-10zm1167,-40l24,-19l-23,-14c-13,-8 -61,-35 -108,-60c-79,-43 -83,-47 -60,-55c24,-9 24,-10 -17,-31c-23,-11 -45,-21 -48,-21c-11,0 -5,99 8,104c10,5 10,7 0,12c-25,11 -12,23 70,68c88,49 109,51 154,16zm3403,10c0,-18 -3,-19 -21,-9c-17,9 -19,13 -8,20c22,14 29,11 29,-11zm-8160,-60c0,-10 -31,-22 -38,-16c-2,3 -2,12 1,20c6,15 37,12 37,-4zm5337,-12c-3,-7 -5,-2 -5,12c0,14 2,19 5,13c2,-7 2,-19 0,-25zm-3087,-13c0,-8 -4,-15 -10,-15c-5,0 -10,7 -10,15c0,8 5,15 10,15c6,0 10,-7 10,-15zm9385,-15c-10,-11 -20,-18 -22,-16c-2,2 -18,-10 -35,-27c-28,-29 -29,-31 -12,-44c10,-7 13,-13 7,-13c-6,0 -17,7 -24,16c-11,14 -9,19 11,35c35,26 18,24 -41,-7c-28,-14 -56,-23 -62,-21c-7,3 -3,8 8,11c11,4 56,25 100,46c95,46 93,45 70,20zm-522,-62c29,-14 36,-28 12,-28c-23,0 -65,22 -59,31c7,12 15,11 47,-3zm487,-68c55,-28 100,-52 100,-55c0,-5 -199,92 -209,101c-14,13 21,-2 109,-46zm50,5c25,-13 41,-24 35,-24c-5,0 -30,11 -55,24c-25,13 -40,24 -35,24c6,0 30,-11 55,-24zm-7280,-24c56,-25 33,-38 -25,-14c-44,18 -58,33 -31,33c8,0 33,-8 56,-19z" id="svg_2"/>
   <path d="m11791,4076c10,-9 89,-46 89,-41c0,5 -75,45 -86,45c-4,0 -5,-2 -3,-4z" id="svg_3"/>
   <path d="m5007,3999c7,-7 15,-10 18,-7c3,3 -2,9 -12,12c-14,6 -15,5 -6,-5z" id="svg_4"/>
   <path d="m5060,3976c0,-2 7,-7 16,-10c8,-3 12,-2 9,4c-6,10 -25,14 -25,6z" id="svg_5"/>
   <path d="m5742,3971l-32,-17l32,-12c37,-14 41,-12 36,21c-3,25 -3,25 -36,8z" id="svg_6"/>
   <path d="m4111,3327l-1,-38l30,16c17,9 30,18 30,21c0,2 -9,0 -19,-6c-28,-14 -29,-13 -34,18c-3,21 -4,19 -6,-11z" id="svg_7"/>
   <path d="m9735,1184c-93,-51 -176,-93 -183,-93c-7,-1 -99,39 -205,89l-192,89l-3,-137l-3,-138l-124,-62c-69,-34 -132,-62 -140,-62c-33,0 -21,20 30,46c30,16 55,31 55,34c0,3 -46,25 -101,50c-56,25 -103,49 -107,54c-3,5 -5,35 -5,65l0,56l-4,-52c-3,-36 -8,-53 -18,-53c-10,0 -12,-14 -8,-60c4,-43 2,-60 -6,-60c-7,0 -9,5 -5,12c4,6 3,8 -4,5c-15,-10 -43,3 -35,17c3,6 3,8 -2,4c-6,-6 -117,43 -134,58c-3,2 4,11 15,20c16,13 14,13 -11,-1c-30,-16 -31,-16 -203,64c-95,45 -175,81 -178,81c-2,0 -4,-25 -4,-55c0,-53 -1,-54 -23,-46c-19,8 -39,1 -96,-30c-40,-21 -76,-39 -82,-39c-5,0 -9,38 -9,85c0,47 -3,85 -7,85c-3,0 -62,-29 -129,-65c-68,-36 -130,-65 -138,-65c-8,0 -16,-4 -18,-10c-1,-5 -41,-30 -87,-54l-83,-45l-119,54l-118,55l-88,-46l-88,-47l-98,46l-99,46l-39,-19c-21,-11 -41,-20 -44,-20c-3,0 -5,21 -5,46c0,25 -3,44 -7,42c-5,-2 -45,-22 -89,-45l-82,-42l-82,39c-45,22 -86,40 -91,40c-5,0 -9,-25 -9,-55c0,-30 -2,-55 -5,-55c-4,0 -18,6 -33,14c-59,30 -70,29 -74,-3l-3,-30l-237,111l-236,110l-207,-111c-114,-61 -211,-111 -216,-111c-4,0 -74,30 -154,67l-146,66l-57,-27l-57,-27l-68,30c-38,17 -74,31 -79,31c-15,0 -278,-144 -278,-152c0,-3 16,-12 35,-18c41,-13 44,-26 12,-41c-15,-7 -31,-7 -50,0c-26,10 -27,12 -27,96c0,55 -4,85 -11,85c-9,0 -345,-177 -399,-211c-8,-5 -34,-19 -58,-31c-23,-12 -42,-25 -42,-29c0,-4 20,-15 45,-26c25,-10 45,-25 45,-33c0,-8 3,-24 6,-35c4,-16 -3,-24 -30,-38l-36,-17l0,36c0,25 -4,35 -12,31c-47,-19 -45,-24 -51,89c-4,59 -7,138 -7,176c0,37 -2,68 -3,68c-2,0 -70,-31 -150,-70c-80,-38 -151,-70 -157,-70c-6,0 -43,16 -83,36c-39,20 -107,52 -149,70l-78,33l0,-114l0,-114l-102,49l-103,48l-3,-34c-2,-21 -8,-34 -18,-34c-11,0 -14,22 -14,115c0,63 -2,115 -5,115c-3,0 -87,-41 -187,-91l-181,-91l-194,96c-107,53 -197,96 -199,96c-2,0 -4,-61 -4,-135l0,-136l-132,-64c-109,-52 -136,-61 -152,-53c-18,10 -14,14 42,42l62,30l-107,56l-107,55l0,60c1,59 1,59 -3,8c-3,-39 -8,-53 -19,-53c-13,0 -15,-11 -12,-60c1,-33 2,-60 0,-60c-1,0 -25,11 -52,25c-27,14 -52,25 -55,25c-3,0 -5,-22 -5,-50l0,-50l-65,32c-36,18 -65,35 -65,38c0,3 54,32 120,65c66,33 119,63 117,68c-3,10 4,6 -270,140l-217,107l-210,-105c-202,-101 -238,-116 -225,-95c9,15 -1,12 -55,-15c-27,-14 -52,-25 -55,-25c-3,0 -5,50 -5,110c0,62 -4,110 -9,110c-6,0 -92,-40 -193,-90c-101,-49 -184,-90 -185,-90c-2,0 -3,27 -3,60l0,60l-140,-70c-77,-38 -147,-70 -155,-70c-9,0 -47,16 -85,35c-38,19 -72,35 -75,35c-3,0 -5,-23 -5,-50c0,-44 -3,-52 -25,-62l-25,-11l0,-189c0,-183 1,-188 19,-178c27,14 31,13 31,-9c0,-20 -25,-35 -41,-25c-5,3 -9,-105 -9,-265l0,-271l6382,0c5917,0 6383,1 6400,17c16,14 18,34 18,169c0,144 -1,154 -20,164c-11,6 -25,8 -30,5c-6,-4 -10,-3 -9,2c1,4 1,81 0,171l-1,162l-101,-51c-68,-34 -105,-47 -112,-40c-6,6 37,33 132,80c140,71 141,71 141,105c0,19 -4,38 -10,41c-13,8 -13,262 0,270c7,4 6,13 -1,27c-6,11 -9,34 -7,50c5,32 4,32 -57,8c-27,-11 -37,-9 -90,18l-60,30l-120,-60l-119,-60l34,-18l34,-18l-44,-22l-44,-22l-115,55c-64,30 -143,67 -177,82l-61,27l-51,-26l-52,-26l-70,35c-38,19 -75,35 -82,35c-7,0 -76,-31 -153,-69l-140,-68l44,-23l45,-22l-28,-15c-24,-12 -33,-13 -52,-2c-22,12 -24,18 -24,101c0,48 -2,88 -5,88c-2,0 -80,-37 -172,-83c-92,-45 -207,-100 -255,-122c-49,-21 -88,-43 -88,-47c0,-5 20,-18 45,-30c41,-20 45,-25 45,-58c0,-30 -5,-39 -25,-48c-39,-18 -45,-15 -45,23l0,35l-50,-25c-27,-14 -51,-25 -53,-25c-2,0 -8,100 -12,223c-4,122 -8,223 -10,225c-2,2 -27,-10 -56,-26c-30,-17 -99,-53 -153,-80l-99,-51l-51,26c-75,39 -249,113 -253,109c-2,-2 -4,-51 -4,-110c0,-58 -3,-106 -8,-106c-5,0 -52,20 -105,45l-96,44l0,-40c0,-28 -4,-39 -12,-37c-9,3 -15,40 -18,116c-3,61 -8,113 -10,115c-3,2 -81,-38 -175,-89zm-1115,-284c0,-51 -4,-57 -28,-41c-11,7 -11,9 2,14c8,3 14,15 13,26c0,11 -4,18 -8,15c-4,-2 -15,-1 -24,2c-15,6 -14,9 6,20c36,20 39,18 39,-36zm-7555,3c35,-17 46,-33 23,-33c-14,0 -78,37 -78,45c0,9 19,5 55,-12zm6573,-37c38,-27 39,-25 -70,-84l-77,-42l-53,23l-52,23l94,52c52,28 102,52 111,52c8,0 30,-11 47,-24zm-796,-12c26,-13 37,-14 67,-4c33,10 43,8 110,-23l75,-33l-108,-58c-59,-32 -105,-60 -102,-64c3,-3 -11,-16 -33,-29l-39,-23l-63,30c-35,16 -56,29 -46,30c10,0 35,-9 57,-20c22,-11 42,-20 45,-20c3,0 5,22 5,50c0,48 1,50 40,70c22,11 40,24 40,28c0,5 -20,18 -45,30c-25,12 -45,29 -45,37c0,19 4,19 42,-1zm5668,9c-1,-5 -48,-30 -105,-57c-58,-27 -105,-54 -105,-58c0,-5 -4,-6 -10,-3c-5,3 -10,1 -10,-4c0,-6 -7,-11 -16,-11c-26,0 -10,23 22,32c16,5 70,30 119,57c95,51 105,55 105,44zm-3397,-59c26,-14 47,-31 47,-39c0,-20 1,-20 -90,21c-57,26 -80,42 -80,55c0,17 2,17 38,2c20,-8 58,-26 85,-39zm833,9c-10,-10 -19,5 -10,18c6,11 8,11 12,0c2,-7 1,-15 -2,-18zm2551,-125c-2,-29 -3,-6 -3,52c0,58 1,81 3,53c2,-29 2,-77 0,-105zm-4610,60c40,-18 72,-36 73,-40c0,-12 -42,-31 -49,-22c-3,5 -37,24 -75,42c-52,25 -66,36 -55,43c21,13 28,12 106,-23zm1482,-7l34,-18l-64,-36c-129,-71 -127,-71 -183,-46c-49,21 -49,22 -25,34c13,7 26,12 30,10c3,-3 39,14 80,35c41,22 79,39 84,39c6,0 25,-8 44,-18zm-7532,-10c-1,-16 -4,-18 -21,-9c-22,12 -23,11 21,27c1,1 1,-8 0,-18zm6785,-13c-6,-6 -16,-7 -23,-3c-9,6 -7,12 7,22c21,15 34,-1 16,-19zm3718,-8c22,-11 40,-23 40,-25c0,-5 -79,32 -89,41c-11,10 14,2 49,-16zm-9970,-92c0,-10 -2,-18 -5,-18c-3,0 -41,18 -85,40c-60,30 -80,45 -80,60c0,18 8,16 85,-22c59,-30 85,-48 85,-60zm7520,97c0,-8 -82,-47 -87,-41c-3,2 12,14 34,25c39,20 53,25 53,16zm-3551,-158l1,-67l53,30c30,16 57,30 61,30c4,0 6,-17 4,-37c-3,-35 -7,-40 -82,-81c-43,-24 -80,-42 -82,-40c-1,2 -4,62 -5,133c-1,115 1,130 17,142c17,13 20,11 25,-14c4,-15 7,-58 8,-96zm-3179,97c0,-8 -5,-12 -10,-9c-6,4 -8,11 -5,16c9,14 15,11 15,-7zm9336,-32c-5,-4 -86,36 -86,43c0,3 20,-5 45,-17c24,-12 43,-23 41,-26zm-11399,6c40,-18 72,-35 73,-38c0,-3 -9,-11 -20,-18c-17,-10 -23,-10 -34,0c-7,8 -31,22 -54,32c-22,10 -42,27 -45,37c-7,25 -4,25 80,-13zm6713,-3c0,-2 -10,-9 -22,-15c-22,-11 -22,-10 -4,4c21,17 26,19 26,11zm-5970,-30c0,-8 -9,-15 -20,-15c-22,0 -27,15 -7,23c21,9 27,7 27,-8zm735,-2c19,-9 35,-19 35,-23c0,-3 -44,-28 -98,-54l-98,-48l-49,25c-47,23 -48,25 -24,33c13,4 29,9 34,10c6,1 42,18 80,37c39,20 73,36 77,37c4,0 23,-8 43,-17zm7512,-35c-3,-7 -5,-2 -5,12c0,14 2,19 5,13c2,-7 2,-19 0,-25zm-2926,-14c62,-31 75,-34 99,-24c22,9 34,8 66,-7c21,-9 41,-19 43,-20c3,-2 -4,-10 -15,-19c-18,-14 -18,-15 4,-4c21,10 39,5 137,-41c63,-29 111,-57 108,-62c-3,-6 -1,-7 4,-4c14,9 136,-44 126,-54c-5,-4 -53,-32 -108,-62c-55,-30 -118,-66 -139,-81c-39,-26 -66,-33 -66,-17c0,5 29,21 65,36c36,16 65,31 65,35c0,4 -30,20 -66,35c-57,24 -64,30 -50,40c9,7 16,15 16,17c0,3 -43,25 -95,49c-83,37 -115,59 -87,59c5,0 17,7 28,16c10,9 1,6 -20,-6l-40,-22l-83,37c-76,34 -83,40 -89,71c-7,37 0,64 16,64c6,0 42,-16 81,-36zm2979,32c0,-2 -7,-7 -16,-10c-8,-3 -12,-2 -9,4c6,10 25,14 25,6zm-2325,-43l56,-28l-3,-64l-3,-64l-52,-29l-53,-30l0,99c0,54 -3,108 -6,121c-8,28 -6,28 61,-5zm-4725,12c0,-7 -58,-35 -72,-35c-7,1 3,9 22,20c35,19 50,24 50,15zm-2034,-20c-11,-8 -25,-15 -30,-15c-6,1 0,7 14,15c32,19 40,18 16,0zm-683,-81c59,-30 76,-35 97,-27c22,8 47,-2 183,-72c86,-45 154,-85 150,-90c-5,-4 -3,-5 4,-1c6,3 41,-8 76,-25l64,-32l-96,-47c-53,-26 -98,-44 -101,-40c-3,4 -34,22 -69,39c-57,29 -61,34 -45,46c16,11 8,18 -81,63l-99,49l59,31c78,41 64,41 -18,1l-63,-31l-82,41c-81,41 -82,42 -82,79c0,64 6,65 103,16zm653,-29c49,-22 56,-28 50,-47c-3,-13 -6,-42 -6,-65c0,-41 -2,-44 -49,-68l-50,-25l-3,95c-2,52 -2,95 0,95c1,0 21,-9 43,-21c23,-11 43,-19 45,-16c2,2 -19,14 -46,27c-28,13 -50,29 -50,37c0,17 0,17 66,-12zm5748,-12c22,-12 26,-17 15,-24c-9,-5 -21,-3 -34,7c-56,41 -63,41 -144,-2c-75,-39 -76,-40 -79,-83c-3,-38 -1,-43 15,-37c12,4 9,-1 -7,-13c-14,-11 -25,-19 -26,-18c-1,1 1,27 3,58l5,56l77,42c82,44 111,47 175,14zm5896,-3c33,-17 60,-33 60,-35c0,-5 -119,52 -129,61c-13,12 16,1 69,-26zm-5945,-46c-25,-20 -155,-86 -155,-80c0,3 36,24 81,47c61,32 79,46 74,58c-5,13 -4,14 7,3c11,-11 9,-16 -7,-28zm-6025,-281c0,-15 -63,-44 -73,-34c-6,6 1,15 19,25c32,17 54,20 54,9zm11486,-45c-49,-25 -71,-17 -27,10c18,11 40,18 49,15c10,-5 4,-12 -22,-25z" id="svg_8"/>
   <path d="m7830,486c0,-2 7,-7 16,-10c8,-3 12,-2 9,4c-6,10 -25,14 -25,6z" id="svg_9"/>
   <path d="m8658,1129c-21,-11 -38,-22 -38,-24c0,-3 18,4 40,15c22,11 40,23 40,25c0,7 0,7 -42,-16z" id="svg_10"/>
  </g>
  <text fill="#000000" font-family="serif" font-size="24" id="svg_11" stroke="#000000" stroke-width="0" text-anchor="middle" transform="matrix(3.32963 0 0 4.53846 -400.332 -681.154)" x="186.647889" xml:space="preserve" y="219.449152">DataRekrutt</text>
  <text fill="#000000" font-family="serif" font-size="24" id="svg_12" stroke="#000000" stroke-width="0" text-anchor="middle" transform="matrix(3.32963 0 0 4.53846 -400.332 -681.154)" x="308.945454" xml:space="preserve" y="197.694226">DataRekrutt</text>
  <text fill="#000000" font-family="serif" font-size="24" id="svg_13" stroke="#000000" stroke-width="0" text-anchor="middle" transform="matrix(3.32963 0 0 4.53846 -400.332 -681.154)" x="437.788593" xml:space="preserve" y="202.982364">DataRekrutt</text>
 </g>
</svg>